<mxfile host="65bd71144e">
    <diagram id="UA44kliVNn6lD2WBI0SW" name="第 1 页">
        <mxGraphModel dx="782" dy="563" grid="1" gridSize="10" guides="1" tooltips="1" connect="1" arrows="1" fold="1" page="1" pageScale="1" pageWidth="827" pageHeight="1169" math="0" shadow="0">
            <root>
                <mxCell id="0"/>
                <mxCell id="1" parent="0"/>
                <mxCell id="6" value="" style="group" vertex="1" connectable="0" parent="1">
                    <mxGeometry x="520" y="30" width="170" height="90" as="geometry"/>
                </mxCell>
                <mxCell id="4" value="" style="rounded=0;whiteSpace=wrap;html=1;fontFamily=Verdana;" vertex="1" parent="6">
                    <mxGeometry y="30" width="170" height="60" as="geometry"/>
                </mxCell>
                <mxCell id="2" value="dirName" style="rounded=0;whiteSpace=wrap;html=1;fontFamily=Verdana;fillColor=#6a00ff;fontColor=#ffffff;strokeColor=#3700CC;" vertex="1" parent="6">
                    <mxGeometry x="10" y="44" width="70" height="30" as="geometry"/>
                </mxCell>
                <mxCell id="3" value="objId" style="rounded=0;whiteSpace=wrap;html=1;fontFamily=Verdana;fillColor=#d80073;fontColor=#ffffff;strokeColor=#A50040;" vertex="1" parent="6">
                    <mxGeometry x="90" y="44" width="70" height="30" as="geometry"/>
                </mxCell>
                <mxCell id="5" value="Context" style="text;html=1;strokeColor=none;fillColor=none;align=center;verticalAlign=middle;whiteSpace=wrap;rounded=0;fontFamily=Verdana;" vertex="1" parent="6">
                    <mxGeometry width="60" height="30" as="geometry"/>
                </mxCell>
                <mxCell id="9" style="edgeStyle=orthogonalEdgeStyle;html=1;exitX=1;exitY=0.5;exitDx=0;exitDy=0;fontFamily=Verdana;entryX=0;entryY=0.5;entryDx=0;entryDy=0;" edge="1" parent="1" source="8" target="4">
                    <mxGeometry relative="1" as="geometry">
                        <mxPoint x="300" y="110" as="targetPoint"/>
                    </mxGeometry>
                </mxCell>
                <mxCell id="8" value="URL: /{dirName}/{objId}" style="shape=step;perimeter=stepPerimeter;whiteSpace=wrap;html=1;fixedSize=1;fontFamily=Verdana;" vertex="1" parent="1">
                    <mxGeometry x="60" y="40" width="210" height="40" as="geometry"/>
                </mxCell>
                <mxCell id="10" value="config.views" style="rounded=0;whiteSpace=wrap;html=1;fontFamily=Verdana;fillColor=#008a00;fontColor=#ffffff;strokeColor=#005700;" vertex="1" parent="1">
                    <mxGeometry x="547.5" y="200" width="115" height="50" as="geometry"/>
                </mxCell>
                <mxCell id="12" value="config.objPath" style="rounded=0;whiteSpace=wrap;html=1;fontFamily=Verdana;fillColor=#008a00;fontColor=#ffffff;strokeColor=#005700;" vertex="1" parent="1">
                    <mxGeometry x="260" y="110" width="115" height="50" as="geometry"/>
                </mxCell>
                <mxCell id="13" style="edgeStyle=orthogonalEdgeStyle;html=1;exitX=0.5;exitY=1;exitDx=0;exitDy=0;entryX=0.5;entryY=0;entryDx=0;entryDy=0;fontFamily=Verdana;" edge="1" parent="1" source="4" target="10">
                    <mxGeometry relative="1" as="geometry"/>
                </mxCell>
                <mxCell id="15" value="model" style="rounded=1;whiteSpace=wrap;html=1;fontFamily=Verdana;" vertex="1" parent="1">
                    <mxGeometry x="375" y="195" width="120" height="60" as="geometry"/>
                </mxCell>
            </root>
        </mxGraphModel>
    </diagram>
</mxfile>